# AST/ASF file generated using VICON BodyLanguage
# -----------------------------------------------
:version 1.10
:name VICON
:units
  mass 1.0
  length 0.45
  angle deg
:documentation
   .ast/.asf automatically generated from VICON data using
   VICON BodyBuilder and BodyLanguage model FoxedUp or BRILLIANT.MOD
:root
   order TX TY TZ RX RY RZ
   axis XYZ
   position 0 0 0  
   orientation 0 0 0 
:bonedata
  begin
     id 1 
     name lhipjoint
     direction 0.440178 -0.822639 0.359871 
     length 2.53113 
     axis 0 0 0  XYZ
  end
  begin
     id 2 
     name lfemur
     direction 0.34202 -0.939693 0  
     length 7.88132  
     axis 0 0 20  XYZ
    dof rx ry rz
    limits (-160.0 20.0)
           (-70.0 70.0)
           (-60.0 70.0)
  end
  begin
     id 3 
     name ltibia
     direction 0.34202 -0.939693 0   
     length 8.43783   
     axis 0 0 20   XYZ
    dof rx
    limits (-10.0 170.0)
  end
  begin
     id 4 
     name lfoot
     direction 0.0886351 -0.243523 0.965837   
     length 2.63414   
     axis -90 7.62852e-016 20   XYZ
    dof rx rz
    limits (-45.0 90.0)
           (-70.0 20.0)
  end
  begin
     id 5 
     name ltoes
     direction 1.53703e-011 -4.21717e-011 1   
     length 1.31427   
     axis -90 7.62852e-016 20   XYZ
    dof rx
    limits (-90.0 20.0)
  end
  begin
     id 6 
     name rhipjoint
     direction -0.399779 -0.839773 0.367367   
     length 2.47948  
     axis 0 0 0  XYZ 
  end
  begin
     id 7 
     name rfemur
     direction -0.34202 -0.939693 0   
     length 7.74806   
     axis 0 0 -20   XYZ
    dof rx ry rz
    limits (-160.0 20.0)
           (-70.0 70.0)
           (-70.0 60.0)
  end
  begin
     id 8 
     name rtibia
     direction -0.34202 -0.939693 0   
     length 8.74432   
     axis 0 0 -20   XYZ
    dof rx
    limits (-10.0 170.0)
 end
 begin
     id 9 
     name rfoot
     direction -0.108514 -0.298139 0.948334   
     length 2.66102  
     axis -90 -7.62852e-016 -20   XYZ
    dof rx rz
    limits (-45.0 90.0)
           (-20.0 70.0)
  end
  begin
     id 10 
     name rtoes
     direction -1.53392e-011 -4.22077e-011 1   
     length 1.31983   
     axis -90 -7.62852e-016 -20   XYZ
    dof rx
    limits (-90.0 20.0)
  end
  begin
     id 11 
     name lowerback
     direction 0.0113257 0.999866 0.0118602   
     length 2.58694   
     axis 0 0 0   XYZ
    dof rx ry rz
    limits (-20.0 45.0)
           (-30.0 30.0)
           (-30.0 30.0)
  end
  begin
     id 12 
     name upperback
     direction -0.0164747 0.995193 -0.0965375   
     length 2.52368   
     axis 0 0 0   XYZ
    dof rx ry rz
    limits (-20.0 45.0)
           (-30.0 30.0)
           (-30.0 30.0)
  end
  begin
     id 13 
     name thorax
     direction -0.0194301 0.99433 -0.104552   
     length 2.56099   
     axis 0 0 0   XYZ
    dof rx ry rz
    limits (-20.0 45.0)
           (-30.0 30.0)
           (-30.0 30.0)
  end
  begin
     id 14 
     name lowerneck
     direction 0.0148543 0.995587 -0.092657   
     length 1.71582   
     axis 0 0 0   XYZ
    dof rx ry rz
    limits (-20.0 45.0)
           (-30.0 30.0)
           (-30.0 30.0)
  end
  begin
     id 15 
     name upperneck
     direction -0.0135467 0.993656 -0.111639   
     length 1.68937   
     axis 0 0 0   XYZ
    dof rx ry rz
    limits (-20.0 45.0)
           (-30.0 30.0)
           (-30.0 30.0)
  end
  begin
     id 16
     name head
     direction -0.00615349 0.999547 -0.029448  
     length 1.7462  
     axis 0 0 0   XYZ
    dof rx ry rz
    limits (-20.0 45.0)
           (-30.0 30.0)
           (-30.0 30.0)
  end
  begin
     id 17 
     name lclavicle
     direction 0.988267 0.149885 0.0293713  
     length 4.47222  
     axis 0 0 0   XYZ
    dof ry rz
    limits (-20.0 10.0)
           (0.0 20.0)
  end
  begin
     id 18 
     name lhumerus
     direction 1 -4.48986e-011 -1.14833e-027   
     length 5.37148   
     axis 180 -30 -90   XYZ
    dof rx ry rz
    limits (-60.0 90.0)
           (-90.0 90.0)
           (-90.0 90.0)
  end
  begin
     id 19
     name lradius
     direction 0.999998 0.00170963 -0.000987055   
     length 3.94212   
     axis 180 -30 -90   XYZ
    dof rx
    limits (-10.0 170.0)
  end
  begin
     id 20
     name lwrist
     direction 0.999998 7.53149e-005 -0.00194706   
     length 1.97106   
     axis 4.65056e-015 90 90   XYZ
    dof ry
    limits (-180.0 0.0)
 end
  begin
     id 21 
     name lhand
     direction 1 -4.48973e-011 -1.31746e-026   
     length 1.17917   
     axis 8.4065e-015 90 90   XYZ
    dof rx rz
    limits (-90.0 90.0)
           (-45.0 45.0)
  end
  begin
     id 22 
     name lfingers
     direction 1 -4.49107e-011 -2.63492e-026   
     length 0.950679   
     axis 1.6813e-014 90 90   XYZ
    dof rx
    limits (0.0 90.0)
  end
  begin
     id 23
     name lthumb
     direction 0.707107 -6.35048e-011 0.707107   
     length 1.36499   
     axis -90 45 2.85299e-015   XYZ
    dof rx rz
    limits (-45.0 45.0)
           (-45.0 45.0)
  end
  begin
     id 24 
     name rclavicle
     direction -0.996699 0.0642895 -0.0495725   
     length 4.62611  
     axis 0 0 0   XYZ 
    dof ry rz
    limits (-10.0 20.0)
           (-20.0 0.0)
  end
  begin
     id 25 
     name rhumerus
     direction -1 -4.48919e-011 -2.41059e-027  
     length 5.4981   
     axis 180 30 90   XYZ
    dof rx ry rz
    limits (-90.0 60.0)
           (-90.0 90.0)
           (-90.0 90.0)
  end
  begin
     id 26 
     name rradius
     direction -0.999999 0.00118101 -0.000681858   
     length 3.48381   
     axis 180 30 90   XYZ
    dof rx
    limits (-10.0 170.0)
  end
  begin
     id 27 
     name rwrist
     direction -0.999999 0.000321823 -0.00132288   
     length 1.7419   
     axis 4.65056e-015 -90 -90   XYZ
    dof ry
    limits (-180.0 0.0)
  end
  begin
     id 28
     name rhand
     direction -1 -4.49022e-011 -1.31746e-026   
     length 1.34932   
     axis 8.4065e-015 -90 -90   XYZ
    dof rx rz
    limits (-90.0 90.0)
           (-45.0 45.0)
  end
  begin
     id 29
     name rfingers
     direction -1 -4.49178e-011 -2.63492e-026   
     length 1.08785   
     axis 1.6813e-014 -90 -90   XYZ
    dof rx
    limits (0.0 90.0)
  end
  begin
     id 30
     name rthumb
     direction -0.707107 -6.34713e-011 0.707107   
     length 1.56195   
     axis -90 -45 -2.85299e-015   XYZ
    dof rx rz
    limits (-45.0 45.0)
           (-45.0 45.0)
  end
:hierarchy
  begin
    root lhipjoint rhipjoint lowerback
    lhipjoint lfemur
    lfemur ltibia
    ltibia lfoot
    lfoot ltoes
    rhipjoint rfemur
    rfemur rtibia
    rtibia rfoot
    rfoot rtoes
    lowerback upperback
    upperback thorax
    thorax lowerneck lclavicle rclavicle
    lowerneck upperneck
    upperneck head
    lclavicle lhumerus
    lhumerus lradius
    lradius lwrist
    lwrist lhand lthumb
    lhand lfingers
    rclavicle rhumerus
    rhumerus rradius
    rradius rwrist
    rwrist rhand rthumb
    rhand rfingers
  end

#!OML:ASF X:\für Bonn\!DataBase\2005_08_10_Bjorn_Final\c3d\bjorn.ASF
:FULLY-SPECIFIED
:DEGREES
1
root 0.5806 19.1723 3.49532 -178.286 5.63129 -177.458
lowerback -1.75526 1.13652 5.95074
upperback 14.5338 2.99584 1.69564
thorax 17.5371 2.92372 -0.584488
lowerneck -1.80325 -3.06855 0.564622
upperneck 7.87232 -4.18282 -2.60455
head 2.74001 -2.23545 -1.05631
rclavicle -2.90226e-014 3.49861e-014
rhumerus -1460.42 -67.0422 1378.93
rradius 11.2713
rwrist 26.7118
rhand -26.7014 10.5062
rfingers 7.12502
rthumb -0.131703 -19.4735
lclavicle -2.90226e-014 3.49861e-014
lhumerus 6.81434 66.0309 94.9331
lradius 8.9849
lwrist -67.3988
lhand -25.374 3.9141
lfingers 7.12502
lthumb 1.15035 33.8907
rfemur -16.0287 -6.37858 17.0077
rtibia 30.1996
rfoot -15.8226 13.0092
rtoes -8.88444
lfemur -13.1958 5.70967 -12.9586
ltibia 31.5777
lfoot -14.4845 -5.94879
ltoes 0.288143
2
root 0.573936 19.1882 3.58482 -177.87 5.6274 -177.583
lowerback -1.0868 1.0815 5.75932
upperback 14.6729 3.06289 1.68561
thorax 17.2596 2.96043 -0.506989
lowerneck -2.83693 -3.07502 0.281278
upperneck 7.0374 -4.12473 -2.47374
head 2.6601 -2.18345 -0.971474
rclavicle -2.78299e-014 -3.49861e-014
rhumerus -1453.24 -65.5673 1371.38
rradius 11.1343
rwrist 28.2972
rhand -25.8747 11.1842
rfingers 7.12502
rthumb 0.666784 -18.7945
lclavicle -2.78299e-014 -3.49861e-014
lhumerus 11.412 62.1009 99.9769
lradius 8.9822
lwrist -66.0319
lhand -25.633 3.3284
lfingers 7.12502
lthumb 0.90025 33.3062
rfemur -16.7498 -6.5472 16.9565
rtibia 30.0962
rfoot -15.4717 13.0453
rtoes -8.67383
lfemur -13.9562 5.7057 -13.1678
ltibia 31.516
lfoot -14.1569 -5.95536
ltoes 0.775336
3
root 0.566745 19.2029 3.67326 -177.474 5.60243 -177.668
lowerback -0.420814 1.02973 5.62107
upperback 14.8017 3.12566 1.67875
thorax 16.9757 3.00203 -0.457614
lowerneck -3.76771 -3.07269 0.0716893
upperneck 6.16485 -4.07089 -2.37841
head 2.54716 -2.13801 -0.908019
rclavicle 2.18663e-014 1.90833e-014
rhumerus -1446.7 -63.4667 1364.71
rradius 10.9689
rwrist 29.5875
rhand -25.1485 11.828
rfingers 7.12502
rthumb 1.36812 -18.1474
lclavicle 2.18663e-014 1.90833e-014
lhumerus 15.3267 57.8989 103.957
lradius 8.87037
lwrist -64.4948
lhand -25.5717 2.98431
lfingers 7.12502
lthumb 0.959401 32.9619
rfemur -17.4404 -6.73224 16.9534
rtibia 29.975
rfoot -15.119 13.0487
rtoes -8.63554
lfemur -14.6798 5.68577 -13.3277
ltibia 31.4563
lfoot -13.8869 -5.94622
ltoes 1.12138
4
root 0.561305 19.2174 3.76062 -177.066 5.55105 -177.732
lowerback 0.18317 0.98276 5.49356
upperback 14.9262 3.18402 1.68979
thorax 16.7288 3.04066 -0.391831
lowerneck -4.36087 -3.07557 -0.148168
upperneck 4.96731 -4.04332 -2.27048
head 2.26506 -2.10693 -0.826496
rclavicle 1.47101e-014 -3.10104e-014
rhumerus -1440.99 -60.5327 1359.08
rradius 10.8909
rwrist 30.3105
rhand -24.6801 12.3846
rfingers 7.12502
rthumb 1.82054 -17.5873
lclavicle 1.47101e-014 -3.10104e-014
lhumerus 18.6564 53.511 107.065
lradius 8.73561
lwrist -62.8732
lhand -25.3472 2.63575
lfingers 7.12502
lthumb 1.1762 32.6123
rfemur -18.1311 -6.88679 16.9771
rtibia 29.8492
rfoot -14.7357 13.0451
rtoes -8.40328
lfemur -15.4168 5.73196 -13.4613
ltibia 31.3812
lfoot -13.5695 -6.0232
ltoes 1.35984
5
root 0.556612 19.2309 3.84542 -176.635 5.49567 -177.773
lowerback 0.687316 0.94156 5.38702
upperback 15.039 3.23283 1.70116
thorax 16.5354 3.07451 -0.33408
lowerneck -4.68573 -3.05746 -0.369856
upperneck 3.52386 -4.01273 -2.13675
head 1.85773 -2.07703 -0.728007
rclavicle 2.50469e-014 4.77083e-014
rhumerus -1436.15 -57.2237 1354.57
rradius 10.8508
rwrist 30.8695
rhand -24.1369 12.8435
rfingers 7.12502
rthumb 2.34518 -17.1233
lclavicle 2.50469e-014 4.77083e-014
lhumerus 21.4792 49.0353 109.361
lradius 8.57991
lwrist -61.2833
lhand -25.2787 2.19736
lfingers 7.12502
lthumb 1.24235 32.1735
rfemur -18.8368 -7.05574 17.0408
rtibia 29.7099
rfoot -14.3879 13.0225
rtoes -8.43315
lfemur -16.1619 5.73733 -13.5697
ltibia 31.3038
lfoot -13.2766 -6.0382
ltoes 1.42947
6
root 0.552288 19.2446 3.92822 -176.207 5.40884 -177.84
lowerback 1.09842 0.893705 5.25241
upperback 15.1705 3.26898 1.72107
thorax 16.4251 3.0992 -0.245045
lowerneck -4.96074 -3.02797 -0.627478
upperneck 2.09014 -3.98642 -1.99589
head 1.4514 -2.05662 -0.623131
rclavicle -3.06128e-014 9.54166e-015
rhumerus -1431.98 -53.5483 1351.03
rradius 10.8792
rwrist 31.1236
rhand -23.6616 13.1991
rfingers 7.12502
rthumb 2.80421 -16.7622
lclavicle -3.06128e-014 9.54166e-015
lhumerus 23.9826 44.5049 111.072
lradius 8.44632
lwrist -60.1818
lhand -25.3488 1.99946
lfingers 7.12502
lthumb 1.1747 31.976
rfemur -19.5338 -7.27655 17.0801
rtibia 29.5724
rfoot -14.024 13.0112
rtoes -8.73252
lfemur -16.9031 5.76939 -13.7055
ltibia 31.2162
lfoot -12.972 -6.10365
ltoes 1.57813
7
root 0.547812 19.2566 4.00849 -175.779 5.28387 -177.891
lowerback 1.44578 0.852135 5.17171
upperback 15.2824 3.29926 1.72357
thorax 16.3373 3.12665 -0.203995
lowerneck -5.3996 -3.00319 -0.849978
upperneck 0.984108 -3.97444 -1.84966
head 1.1821 -2.05093 -0.53327
rclavicle 8.62725e-014 1.59028e-014
rhumerus -1428.16 -50.2523 1348.07
rradius 10.8503
rwrist 31.5912
rhand -23.6048 13.9207
rfingers 7.12502
rthumb 2.85901 -16.0399
lclavicle 8.62725e-014 1.59028e-014
lhumerus 26.1254 39.9447 112.136
lradius 8.38318
lwrist -59.589
lhand -25.3907 2.11875
lfingers 7.12502
lthumb 1.13423 32.0955
rfemur -20.2039 -7.40055 17.128
rtibia 29.4279
rfoot -13.6888 12.9059
rtoes -8.82744
lfemur -17.6344 5.77634 -13.8199
ltibia 31.1152
lfoot -12.6643 -6.16547
ltoes 1.50949
8
root 0.544785 19.2683 4.08629 -175.386 5.16321 -177.961
lowerback 1.79133 0.820245 5.07441
upperback 15.3644 3.33422 1.71352
thorax 16.2122 3.15069 -0.17138
lowerneck -5.98025 -2.96298 -0.985372
upperneck 0.267054 -3.94162 -1.79303
head 1.05866 -2.04183 -0.49418
rclavicle 2.70347e-014 1.66979e-014
rhumerus -1424.24 -47.8571 1345.2
rradius 10.6377
rwrist 33.0233
rhand -23.5401 14.5285
rfingers 7.12502
rthumb 2.9215 -15.4312
lclavicle 2.70347e-014 1.66979e-014
lhumerus 28.0104 35.4324 112.658
lradius 8.38389
lwrist -58.8983
lhand -25.2055 2.26995
lfingers 7.12502
lthumb 1.31314 32.2456
rfemur -20.8271 -7.56675 17.1625
rtibia 29.2843
rfoot -13.3255 12.8149
rtoes -9.02853
lfemur -18.3034 5.77386 -13.9542
ltibia 30.9908
lfoot -12.3384 -6.18999
ltoes 1.34257
9
root 0.542081 19.2805 4.16104 -175.027 5.0075 -178.035
lowerback 2.08579 0.766555 4.96755
upperback 15.4548 3.33485 1.72112
thorax 16.1275 3.15615 -0.113561
lowerneck -6.60328 -2.9191 -1.14853
upperneck -0.29404 -3.90243 -1.79199
head 0.991184 -2.03429 -0.470567
rclavicle 2.78299e-014 8.5875e-014
rhumerus -1420.41 -45.5041 1342.68
rradius 10.416
rwrist 34.6898
rhand -23.2406 14.6097
rfingers 7.12502
rthumb 3.21079 -15.3459
lclavicle 2.78299e-014 8.5875e-014
lhumerus 29.8362 31.0149 112.797
lradius 8.30148
lwrist -58.0405
lhand -25.6183 2.12692
lfingers 7.12502
lthumb 0.914428 32.1047
rfemur -21.3851 -7.66906 17.1753
rtibia 29.1328
rfoot -12.9614 12.6741
rtoes -9.07299
lfemur -18.9184 5.77982 -14.0823
ltibia 30.848
lfoot -12.0139 -6.292
ltoes 1.38563
10
root 0.540846 19.2908 4.23063 -174.692 4.84166 -178.128
lowerback 2.35098 0.732416 4.84558
upperback 15.5167 3.35091 1.72183
thorax 16.026 3.16281 -0.0549495
lowerneck -7.27342 -2.89057 -1.24782
upperneck -0.654405 -3.88207 -1.84783
head 0.992716 -2.03892 -0.479164
rclavicle 7.95139e-015 1.90833e-014
rhumerus -1416.88 -43.0691 1340.65
rradius 10.2742
rwrist 36.2176
rhand -22.6782 14.2295
rfingers 7.12502
rthumb 3.7539 -15.7172
lclavicle 7.95139e-015 1.90833e-014
lhumerus 31.4858 26.694 112.442
lradius 8.34892
lwrist -57.3786
lhand -26.1343 1.77961
lfingers 7.12502
lthumb 0.416015 31.7589
rfemur -21.9029 -7.81495 17.169
rtibia 28.9802
rfoot -12.6086 12.5441
rtoes -9.29376
lfemur -19.478 5.74769 -14.2238
ltibia 30.6877
lfoot -11.69 -6.37875
ltoes 1.25486
11
root 0.538011 19.3007 4.29191 -174.41 4.70511 -178.212
lowerback 2.58406 0.711538 4.75561
upperback 15.54 3.36583 1.7152
thorax 15.8988 3.16743 -0.024906
lowerneck -7.83295 -2.8556 -1.31139
upperneck -0.878115 -3.8496 -1.92846
head 1.01744 -2.03661 -0.500604
rclavicle 3.81667e-014 3.73715e-014
rhumerus -1413.83 -40.3488 1339.26
rradius 10.1259
rwrist 36.9801
rhand -22.0886 13.9625
rfingers 7.12502
rthumb 4.32321 -15.9734
lclavicle 3.81667e-014 3.73715e-014
lhumerus 32.9713 22.5666 111.617
lradius 8.61763
lwrist -57.2751
lhand -26.1061 1.72548
lfingers 7.12502
lthumb 0.443281 31.7048
rfemur -22.3406 -8.03677 17.1663
rtibia 28.83
rfoot -12.26 12.5239
rtoes -9.50935
lfemur -19.9465 5.78156 -14.37
ltibia 30.5287
lfoot -11.4036 -6.45603
ltoes 0.694134
12
root 0.535358 19.3096 4.34363 -174.176 4.58323 -178.313
lowerback 2.72997 0.701326 4.67486
upperback 15.5633 3.38596 1.69301
thorax 15.8308 3.17523 -0.0106388
lowerneck -8.38753 -2.83938 -1.34766
upperneck -1.00183 -3.83957 -2.03466
head 1.07216 -2.0462 -0.536535
rclavicle 2.78299e-014 6.59965e-014
rhumerus -1411.55 -36.3368 1339.23
rradius 9.83401
rwrist 36.0523
rhand -22.026 14.1462
rfingers 7.12502
rthumb 4.38368 -15.7884
lclavicle 2.78299e-014 6.59965e-014
lhumerus 34.478 18.5434 110.485
lradius 8.96002
lwrist -57.1271
lhand -25.7298 1.99416
lfingers 7.12502
lthumb 0.806726 31.9724
rfemur -22.6959 -8.23898 17.1238
rtibia 28.6841
rfoot -11.8688 12.5255
rtoes -9.48251
lfemur -20.3287 5.7488 -14.5214
ltibia 30.3746
lfoot -11.1433 -6.52428
ltoes 0.565417
13
root 0.53379 19.3169 4.38967 -173.979 4.42241 -178.369
lowerback 2.8445 0.697453 4.64185
upperback 15.5549 3.39764 1.6875
thorax 15.7441 3.17936 -0.00631409
lowerneck -8.82122 -2.83278 -1.36629
upperneck -1.08916 -3.84042 -2.10546
head 1.11808 -2.05809 -0.56302
rclavicle -2.94201e-014 4.05521e-014
rhumerus -1409.57 -32.5148 1339.74
rradius 9.73791
rwrist 35.0545
rhand -22.0683 14.6444
rfingers 7.12502
rthumb 4.34279 -15.2911
lclavicle -2.94201e-014 4.05521e-014
lhumerus 36.0283 14.6343 109.018
lradius 9.34434
lwrist -56.7658
lhand -25.8567 1.823
lfingers 7.12502
lthumb 0.684108 31.8016
rfemur -22.9906 -8.5395 17.1447
rtibia 28.5495
rfoot -11.5224 12.599
rtoes -9.77351
lfemur -20.659 5.76506 -14.6223
ltibia 30.2406
lfoot -10.9027 -6.63183
ltoes 0.143755
14
root 0.532822 19.323 4.42716 -173.85 4.28402 -178.428
lowerback 2.9325 0.689256 4.61306
upperback 15.5435 3.39929 1.66633
thorax 15.6718 3.17945 -0.0214622
lowerneck -9.25417 -2.80858 -1.35538
upperneck -1.07916 -3.81312 -2.1713
head 1.19509 -2.05472 -0.593366
rclavicle 5.56597e-015 1.66979e-014
rhumerus -1407.7 -28.8035 1340.61
rradius 9.81298
rwrist 34.074
rhand -21.9416 14.9768
rfingers 7.12502
rthumb 4.46511 -14.9561
lclavicle 5.56597e-015 1.66979e-014
lhumerus 37.7164 10.8795 107.263
lradius 9.79752
lwrist -55.9255
lhand -26.3599 1.26042
lfingers 7.12502
lthumb 0.198129 31.2401
rfemur -23.1892 -8.6998 17.1264
rtibia 28.4269
rfoot -11.1603 12.6065
rtoes -9.67535
lfemur -20.8896 5.70963 -14.7058
ltibia 30.1225
lfoot -10.7101 -6.68865
ltoes -0.153901
15
root 0.53024 19.3264 4.45484 -173.778 4.20307 -178.445
lowerback 2.96444 0.697514 4.6538
upperback 15.5167 3.40865 1.63537
thorax 15.6226 3.18968 -0.0825688
lowerneck -9.66394 -2.79378 -1.359
upperneck -0.880936 -3.78154 -2.18107
head 1.33078 -2.04467 -0.605951
rclavicle 2.62396e-014 3.26007e-014
rhumerus -1405.82 -25.2006 1341.73
rradius 9.91623
rwrist 33.1179
rhand -21.4973 14.727
rfingers 7.12502
rthumb 4.89418 -15.1964
lclavicle 2.62396e-014 3.26007e-014
lhumerus 39.4988 7.3124 105.156
lradius 10.3325
lwrist -54.5023
lhand -26.4889 0.371383
lfingers 7.12502
lthumb 0.0735487 30.3511
rfemur -23.3138 -8.91671 17.1458
rtibia 28.3217
rfoot -10.8263 12.7194
rtoes -9.60559
lfemur -21.0253 5.75429 -14.7551
ltibia 30.0263
lfoot -10.5725 -6.77627
ltoes -0.622633
